<?xml version="1.0" encoding="UTF-8" standalone="no"?>
<!-- Generator: Adobe Illustrator 15.0.0, SVG Export Plug-In . SVG Version: 6.00 Build 0)  -->

<svg
   xmlns:dc="http://purl.org/dc/elements/1.1/"
   xmlns:cc="http://creativecommons.org/ns#"
   xmlns:rdf="http://www.w3.org/1999/02/22-rdf-syntax-ns#"
   xmlns:svg="http://www.w3.org/2000/svg"
   xmlns="http://www.w3.org/2000/svg"
   xmlns:xlink="http://www.w3.org/1999/xlink"
   xmlns:sodipodi="http://sodipodi.sourceforge.net/DTD/sodipodi-0.dtd"
   xmlns:inkscape="http://www.inkscape.org/namespaces/inkscape"
   version="1.0"
   id="Layer_1"
   x="0px"
   y="0px"
   width="557.25024"
   height="492.27499"
   viewBox="0 0 557.25025 492.275"
   enable-background="new 0 0 566.93 566.93"
   xml:space="preserve"
   inkscape:version="0.48.1 "
   sodipodi:docname="ZZ1.svg"><metadata
   id="metadata42"><rdf:RDF><cc:Work
       rdf:about=""><dc:format>image/svg+xml</dc:format><dc:type
         rdf:resource="http://purl.org/dc/dcmitype/StillImage" /></cc:Work></rdf:RDF></metadata><defs
   id="defs40" /><sodipodi:namedview
   pagecolor="#ffffff"
   bordercolor="#666666"
   borderopacity="1"
   objecttolerance="10"
   gridtolerance="10"
   guidetolerance="10"
   inkscape:pageopacity="0"
   inkscape:pageshadow="2"
   inkscape:window-width="1280"
   inkscape:window-height="1004"
   id="namedview38"
   showgrid="false"
   fit-margin-top="0"
   fit-margin-left="0"
   fit-margin-right="0"
   fit-margin-bottom="0"
   inkscape:zoom="0.4603743"
   inkscape:cx="283.6313"
   inkscape:cy="252.81"
   inkscape:window-x="-8"
   inkscape:window-y="-8"
   inkscape:window-maximized="1"
   inkscape:current-layer="Layer_1" />
<g
   id="g3"
   style="stroke:none"
   transform="translate(-4.84375,-44)">
	<defs
   id="defs5">
		<polyline
   id="SVGID_1_"
   points="4.836,44 4.836,536.275 562.094,536.275 562.094,44   " />
	</defs>
	<clipPath
   id="SVGID_2_">
		<use
   xlink:href="#SVGID_1_"
   overflow="visible"
   id="use9"
   style="overflow:visible"
   x="0"
   y="0"
   width="566.92999"
   height="566.92999" />
	</clipPath>
	<polyline
   clip-path="url(#SVGID_2_)"
   clip-rule="evenodd"
   points="133.868,505.641    33.521,505.641 283.617,71.82 535.015,505.641 133.868,505.641  "
   id="polyline11"
   style="fill:#ffffff;fill-rule:evenodd;stroke:none" />
	<path
   clip-path="url(#SVGID_2_)"
   clip-rule="evenodd"
   d="m 525.319,536.275 c 13.131,-0.153 25.173,-7.179 31.738,-18.455 6.737,-11.414 6.737,-25.479 0,-37.047 L 315.392,62.396 C 308.772,51.001 296.63,44 283.481,44 270.299,44 258.086,51.058 251.503,62.499 L 9.766,480.773 c -6.563,11.414 -6.563,25.479 0,36.876 6.704,11.582 18.915,18.626 32.031,18.626 H 525.319 M 63.218,487.05 H 503.753 L 283.481,105.591 63.218,487.05 z"
   id="path13"
   style="fill:#db0000;fill-opacity:1;fill-rule:evenodd;stroke:none"
   inkscape:connector-curvature="0" />
</g>
<g
   id="XMLID_2_"
   style="fill:#000000;stroke:none"
   transform="translate(-4.84375,-44)">
	<g
   id="g16"
   style="fill:#000000;stroke:none">
		<path
   d="m 444.648,475.729 c -4.62,0 -9.241,0 -13.862,0 -4.134,-13.073 -8.23,-26.189 -12.364,-39.266 -2.723,0 -5.445,0 -8.168,0 0,13.089 0,26.177 0,39.266 -4.371,0 -8.742,0 -13.113,0 0,-30.424 0,-60.847 0,-91.27 -0.006,-0.106 -0.013,-0.213 0.075,-0.225 4.427,0 8.758,0 13.113,0 4.408,0 8.873,-0.385 12.889,0.149 7.341,0.98 12.464,5.286 15.512,10.641 1.523,2.676 2.729,6.173 2.772,10.341 0.043,4.115 0.334,8.727 -0.225,12.813 -1.027,7.547 -5.374,12.239 -10.491,15.587 4.668,13.945 9.254,27.964 13.862,41.964 z m -18.433,-53.578 c 2.726,-2.979 2.248,-9.451 2.248,-14.986 0,-4.49 -1.033,-7.753 -3.972,-9.517 -3.365,-2.023 -8.723,-0.902 -14.162,-1.199 -0.087,0.013 -0.081,0.118 -0.075,0.225 0,9.417 0,18.834 0,28.25 6.963,-0.05 12.689,0.808 15.961,-2.773 z"
   id="path18"
   style="fill:#000000;stroke:none"
   inkscape:connector-curvature="0" />
		
		<path
   d="m 385.227,462.541 c 0,4.396 0,8.792 0,13.188 -13.039,0 -26.077,0 -39.116,0 0,-30.424 0,-60.847 0,-91.27 -0.006,-0.106 -0.012,-0.213 0.075,-0.225 13.014,0 26.027,0 39.041,0 0,4.021 0,8.043 0,12.064 -8.692,0 -17.385,0 -26.077,0 -0.175,8.816 -0.025,17.959 -0.075,26.9 7.519,0.175 15.361,0.025 23.005,0.075 0,4.121 0,8.243 0,12.364 -7.668,0 -15.337,0 -23.005,0 0,8.967 0,17.935 0,26.901 8.717,0.003 17.434,0.003 26.152,0.003 z"
   id="path22"
   style="fill:#000000;stroke:none"
   inkscape:connector-curvature="0" />
		<path
   d="m 322.807,471.009 c -1.733,1.976 -4.196,4.096 -7.419,4.651 -1.748,0.304 -3.706,0.294 -5.62,0.294 -1.93,0 -3.874,-0.115 -5.694,-0.294 -6.267,-0.611 -10.432,-3.391 -12.664,-8.099 -0.756,-1.596 -1.489,-2.947 -2.023,-5.096 -0.263,-1.052 -0.01,-63.322 0.899,-67.065 0.777,-3.2 1.896,-5.739 3.672,-7.868 1.923,-2.305 4.149,-3.5 7.044,-4.571 2.909,-1.074 6.331,-0.934 10.415,-1.124 3.341,-0.156 8.228,0.122 11.391,0.675 3.965,0.693 11.096,2.585 12.738,12.738 0.275,1.699 0.388,3.5 0.45,5.471 0.059,1.901 0.199,3.899 0.074,5.77 -0.087,1.314 -0.381,2.423 -1.573,2.772 -0.259,0.038 -9.018,0.162 -10.803,-0.428 -0.612,-0.203 0.128,-8.421 -1.562,-10.288 -0.287,-0.318 -2.157,-1.464 -3.147,-1.648 -0.783,-0.144 -8.599,-0.021 -10.715,0.15 -2.926,0.237 -4.905,2.039 -5.62,4.346 -0.266,0.855 -0.628,3.616 -0.675,4.047 -0.181,1.623 -0.247,43.221 -0.3,43.986 -0.1,1.502 -0.162,3.858 0.075,5.32 0.225,1.374 1.742,3.466 2.922,4.196 0.865,0.537 2.214,0.627 3.598,0.749 3.69,0.325 8.86,0.574 11.465,-0.899 0.384,-0.215 0.896,-0.587 1.124,-0.974 0.115,-0.193 0.805,-1.658 0.898,-1.948 0.4,-1.24 0.463,-3.122 0.6,-4.946 0.172,-2.235 0.334,-12.997 0.2,-16.288 -2.86,-0.156 -6.51,-0.003 -9.941,-0.122 -0.131,-0.315 -0.371,-0.527 -0.6,-0.749 0.153,-1.621 -0.159,-12.573 0.135,-13.18 1.686,0.138 23.973,0.147 23.973,0.147 0,0 0.097,2.357 0.097,3.44 0,1.573 -0.256,12.857 -0.3,15.062 -0.188,9.43 -0.3,19.187 -0.3,28.774 0,2.751 -0.837,7.719 -0.837,7.719 h -11.759 c -10e-4,0 -0.247,-3.163 -0.218,-4.72 z"
   id="path24"
   style="fill:#000000;stroke:none"
   inkscape:connector-curvature="0" />
		<path
   d="m 281.518,384.235 c 0,30.501 0,60.996 0,91.494 -4.071,0 -8.143,0 -12.214,0 -6.847,-18.431 -13.548,-37.008 -20.457,-55.376 0,18.458 0,36.917 0,55.376 -4.346,0 -8.692,0 -13.039,0 0,-30.424 0,-60.847 0,-91.27 -0.006,-0.106 -0.013,-0.213 0.075,-0.225 4.097,0 8.193,0 12.289,0 6.763,18.393 13.526,36.779 20.232,55.226 0.175,-18.259 0.025,-36.842 0.075,-55.226 4.346,0.001 8.692,0.001 13.039,0.001 z"
   id="path26"
   style="fill:#000000;stroke:none"
   inkscape:connector-curvature="0" />
		<path
   d="m 229.064,475.654 c -4.546,0.175 -9.417,0.025 -14.087,0.075 -1.155,-6.613 -2.442,-13.092 -3.672,-19.633 -5.645,0 -11.29,0 -16.935,0 -1.318,6.476 -2.488,13.098 -3.747,19.633 -4.621,0 -9.242,0 -13.863,0 6.791,-30.526 13.572,-61.062 20.457,-91.494 3.797,0 7.594,0 11.39,0 6.816,30.476 13.582,61.002 20.457,91.419 z m -32.372,-31.771 c 4.097,0 8.193,0 12.289,0 -2.104,-11.01 -4.012,-22.215 -6.219,-33.121 -1.954,11.108 -4.112,22.014 -6.07,33.121 z"
   id="path28"
   style="fill:#000000;stroke:none"
   inkscape:connector-curvature="0" />
		
		<path
   d="m 170.466,408.064 c 0,14.206 0,29.739 0,43.985 0,7.494 -1.78,12.461 -5.396,16.561 -3.384,3.841 -8.021,6.76 -14.912,7.119 -7.25,0.381 -14.113,-0.281 -21.956,0 0,-30.424 0,-60.847 0,-91.27 -0.006,-0.106 -0.012,-0.213 0.075,-0.225 7.887,0.246 14.734,-0.331 22.031,0 6.682,0.303 11.44,3.49 14.762,7.193 1.78,1.985 3.282,4.271 4.196,6.819 0.99,2.759 1.2,5.793 1.2,9.818 z m -12.889,1.874 c 0,-2.448 0.184,-4.877 -0.3,-6.744 -0.806,-3.106 -3.369,-5.383 -6.37,-6.22 -2.66,-0.743 -6.188,-0.209 -9.667,-0.375 -0.087,0.013 -0.081,0.119 -0.075,0.226 0,22.23 0,44.461 0,66.69 3.513,-0.068 7.322,0.253 10.041,-0.449 2.794,-0.721 4.534,-2.323 5.545,-4.945 1.202,-3.113 0.824,-8.614 0.824,-13.188 0.002,-11.916 0.002,-23.269 0.002,-34.995 z"
   id="path32"
   style="fill:#000000;stroke:none"
   inkscape:connector-curvature="0" />
		
	</g>
	<g
   id="g36"
   style="fill:#000000;stroke:none">
	</g>
</g>
</svg>